# xmcd
#
# Track frame offsets: 
#        150
#        19852
#        34885
#        48476
#        62549
#        75065
#        92481
#        110370
#        131693
#        149071
#        163158
#        182740
#        199510
#        220253
#        233259
#
# Disc length: 3390 seconds
#
# Revision: 0
# Processed by: cddbd v1.5.2PL0 Copyright (c) Steve Scherf et al.
# Submitted via: ExactAudioCopy v1.3
#
DISCID=c20d3c0f
DTITLE=Bill Wyman's Rhythm Kings - Studio Time
DYEAR=2018
DGENRE=Blues Rock
TTITLE0=Beds Are Burning
TTITLE1=Open The Door
TTITLE2=You're The One
TTITLE3=Going Up The Country
TTITLE4=Long Comma Viper
TTITLE5=My Wife Can't Cook
TTITLE6=I'm Shorty
TTITLE7=Got Love If You Want It
TTITLE8=Shoes
TTITLE9=Dr Watson Mr Holmes
TTITLE10=These Kind Of Blues
TTITLE11=Blue Light Boogie
TTITLE12=Skiing Blues
TTITLE13=Santa Baby
TTITLE14=Jazz Walk
EXTD=
EXTT0=
EXTT1=
EXTT2=
EXTT3=
EXTT4=
EXTT5=
EXTT6=
EXTT7=
EXTT8=
EXTT9=
EXTT10=
EXTT11=
EXTT12=
EXTT13=
EXTT14=
PLAYORDER=
